<?xml version="1.0" standalone="no"?>
<!DOCTYPE svg PUBLIC "-//W3C//DTD SVG 20010904//EN"
 "http://www.w3.org/TR/2001/REC-SVG-20010904/DTD/svg10.dtd">
<svg version="1.0" xmlns="http://www.w3.org/2000/svg"
 width="300.000000pt" height="300.000000pt" viewBox="0 0 300.000000 300.000000"
 preserveAspectRatio="xMidYMid meet">
<metadata>
Created by potrace 1.14, written by Peter Selinger 2001-2017
</metadata>
<g transform="translate(0.000000,300.000000) scale(0.100000,-0.100000)"
fill="#000000" stroke="none">
<path d="M1337 2984 c-1 -1 -22 -5 -47 -9 -192 -28 -395 -99 -560 -196 -180
-106 -378 -299 -494 -481 -110 -173 -203 -427 -224 -614 -8 -71 -7 -343 1
-399 63 -424 302 -806 648 -1036 113 -75 291 -165 347 -175 14 -3 32 -9 41
-13 13 -7 37 -13 131 -36 8 -2 83 -16 112 -20 21 -3 32 1 42 18 12 19 27 76
29 112 1 35 -16 190 -28 243 -8 34 -17 75 -20 92 -3 16 -9 39 -14 52 -9 25
-11 32 -11 50 0 6 -14 -9 -32 -33 -36 -51 -49 -62 -100 -89 -141 -75 -313 -14
-380 137 -39 88 -20 208 46 282 l21 24 -30 -16 c-140 -76 -321 -13 -384 135
-26 61 -24 166 4 223 29 59 100 124 151 137 44 12 59 28 26 28 -35 0 -123 53
-155 93 -44 55 -58 94 -62 164 -9 179 151 315 330 279 22 -4 46 -12 53 -18 8
-7 12 -7 12 0 0 5 -6 12 -13 15 -23 9 -68 106 -74 160 -12 115 55 235 156 280
57 25 149 30 206 10 48 -16 130 -83 140 -113 11 -35 20 -21 19 27 -3 97 59
199 150 245 58 30 152 35 215 12 58 -20 120 -73 146 -125 27 -50 43 -129 34
-164 l-8 -30 17 25 c27 42 87 95 128 115 27 14 61 19 114 19 64 0 83 -4 128
-29 152 -83 191 -274 85 -414 -23 -29 -24 -33 -7 -27 115 47 234 20 315 -73
44 -50 60 -93 64 -170 4 -71 -17 -130 -67 -186 -43 -48 -91 -78 -147 -90 l-34
-7 50 -17 c193 -65 248 -310 102 -452 -62 -60 -127 -83 -213 -77 -34 3 -76 13
-94 22 l-31 16 28 -42 c56 -87 62 -181 16 -274 -95 -193 -385 -199 -482 -10
l-20 40 -11 -35 c-63 -201 -88 -460 -51 -534 13 -27 18 -30 59 -27 100 6 298
65 440 130 52 24 199 113 250 153 331 254 542 618 588 1014 13 118 7 361 -13
460 -106 532 -462 950 -970 1137 -44 17 -87 31 -95 33 -8 2 -37 9 -65 15 -116
27 -219 38 -358 37 -81 0 -148 -1 -150 -3z"/>
</g>
</svg>
